<?xml version="1.0" standalone="no"?>
<!DOCTYPE svg PUBLIC "-//W3C//DTD SVG 20010904//EN"
 "http://www.w3.org/TR/2001/REC-SVG-20010904/DTD/svg10.dtd">
<svg version="1.0" xmlns="http://www.w3.org/2000/svg"
 width="300.000000pt" height="300.000000pt" viewBox="0 0 300.000000 300.000000"
 preserveAspectRatio="xMidYMid meet">
<metadata>
Created by potrace 1.14, written by Peter Selinger 2001-2017
</metadata>
<g transform="translate(0.000000,300.000000) scale(0.100000,-0.100000)"
fill="#000000" stroke="none">
<path d="M440 2977 c-173 -52 -308 -166 -381 -322 -60 -128 -59 -89 -56 -1170
1 -545 6 -1003 10 -1018 62 -231 232 -400 452 -451 62 -14 185 -16 1040 -15
1069 0 1028 -2 1160 63 148 74 242 182 309 356 21 54 21 64 24 1042 2 840 0
997 -12 1057 -45 215 -193 382 -403 453 l-68 23 -1000 2 -1000 2 -75 -22z
m1292 -249 c123 -25 223 -60 329 -112 78 -39 165 -92 195 -121 7 -5 38 -32 71
-60 154 -130 290 -334 358 -539 55 -167 78 -391 56 -543 -20 -136 -22 -145
-51 -234 -66 -200 -191 -399 -334 -529 -70 -63 -80 -72 -142 -116 -206 -148
-469 -226 -739 -219 -144 3 -168 6 -270 31 -116 29 -315 109 -335 135 -3 3
-21 14 -40 24 -19 10 -37 21 -40 24 -3 3 -23 19 -45 36 -249 184 -419 465
-480 795 -12 62 -14 303 -4 365 15 91 16 95 34 165 71 275 265 545 505 705
129 86 329 171 446 190 22 3 57 10 79 14 82 15 309 9 407 -11z"/>
<path d="M1585 2208 c-2 -7 -38 -170 -80 -363 -42 -192 -87 -402 -101 -465
-14 -63 -36 -167 -50 -230 -14 -63 -33 -153 -44 -200 -11 -47 -22 -100 -25
-119 -3 -19 -8 -38 -11 -43 -3 -4 28 -8 69 -8 l74 0 12 53 c35 163 62 284 66
302 3 11 8 34 11 50 3 17 14 71 25 120 12 50 22 99 25 110 2 11 6 31 9 45 3
14 7 34 9 45 12 55 88 405 96 440 16 68 39 173 45 208 3 17 8 40 11 50 5 15
-3 17 -66 17 -47 0 -72 -4 -75 -12z"/>
<path d="M935 1815 c-143 -107 -264 -198 -270 -202 -5 -5 -25 -19 -42 -31 -31
-22 -33 -27 -33 -82 0 -58 1 -60 43 -91 92 -68 473 -350 488 -362 31 -25 78
-57 83 -57 2 0 4 38 5 84 1 61 -3 88 -13 98 -8 7 -109 83 -225 168 -116 85
-210 157 -210 160 0 3 59 48 130 100 71 52 171 126 222 164 l92 68 1 89 c1 49
-1 89 -5 88 -3 0 -123 -88 -266 -194z"/>
<path d="M1792 1921 l0 -88 155 -114 c86 -63 173 -127 194 -144 21 -16 53 -41
69 -54 l31 -23 -223 -167 -223 -166 -2 -87 c-2 -49 0 -88 4 -88 4 0 43 27 87
61 45 33 160 119 256 190 96 71 182 135 190 142 8 7 30 23 48 35 30 22 32 27
32 82 0 57 -1 59 -42 89 -71 51 -82 59 -329 243 -131 98 -240 178 -242 178 -3
0 -4 -40 -5 -89z"/>
</g>
</svg>
